<svg width="29" height="29" viewBox="0 0 29 29" fill="none" xmlns="http://www.w3.org/2000/svg">
<path d="M27.794 26.0804H28.0683L27.5427 25.2853C27.8641 25.2853 28.0345 25.0811 28.0369 24.831C28.0369 24.8213 28.0369 24.8104 28.0357 24.8007C28.0357 24.46 27.8303 24.2969 27.4086 24.2969H26.7271V26.0804H26.9832V25.3034H27.2986L27.794 26.0804ZM27.2805 25.1016H26.9832V24.4987H27.3602C27.5548 24.4987 27.7771 24.5301 27.7771 24.785C27.7771 25.0775 27.5536 25.1016 27.2805 25.1016Z" fill="white"/>
<path d="M20.8933 23.0458H17.2598V17.3558C17.2598 15.9988 17.2357 14.2528 15.37 14.2528C13.4778 14.2528 13.1877 15.7306 13.1877 17.2579V23.0458H9.5555V11.3443H13.044V12.9429H13.0923C13.804 11.7273 15.1259 11.0011 16.5336 11.0531C20.2166 11.0531 20.8945 13.4758 20.8945 16.6259L20.8933 23.0458ZM5.45563 9.74447C4.29079 9.74447 3.34708 8.80076 3.34708 7.63593C3.34708 6.47109 4.29079 5.52738 5.45563 5.52738C6.62046 5.52738 7.56417 6.47109 7.56417 7.63593C7.56417 8.80076 6.62046 9.74447 5.45563 9.74447ZM7.27175 23.0458H3.63467V11.3443H7.27175V23.0458ZM22.7046 2.15372H1.80888C0.821667 2.14284 0.0120833 2.9343 0 3.92151V24.903C0.0120833 25.8914 0.821667 26.6829 1.80888 26.672H22.7046C23.6942 26.6841 24.5074 25.8926 24.5207 24.903V3.9203C24.5062 2.93068 23.693 2.13922 22.7046 2.15251" fill="white"/>
<path d="M27.3118 23.5039C26.3886 23.5124 25.6467 24.2688 25.6563 25.1919C25.6648 26.1151 26.4212 26.857 27.3444 26.8474C28.2676 26.8389 29.0095 26.0825 28.9998 25.1593C28.9913 24.2482 28.2543 23.5124 27.3444 23.5039H27.3118ZM27.3504 26.6552C26.5408 26.6685 25.8352 26.0245 25.8219 25.2149C25.8086 24.4053 26.4538 23.7383 27.2634 23.725C28.073 23.7117 28.74 24.357 28.7533 25.1666C28.7533 25.175 28.7533 25.1823 28.7533 25.1907C28.7702 25.9822 28.1419 26.6383 27.3504 26.6552H27.313Z" fill="white"/>
</svg>
