<svg width="29" height="29" viewBox="0 0 29 29" fill="none" xmlns="http://www.w3.org/2000/svg">
<path d="M27.1449 11.9214C24.5603 11.9214 22.1642 11.0949 20.2091 9.69083V19.8227C20.2091 24.8832 16.0923 28.9988 11.033 28.9988C9.07793 28.9988 7.26423 28.3825 5.77435 27.3361C3.40843 25.6747 1.85693 22.9269 1.85693 19.8227C1.85693 14.7622 5.97373 10.6454 11.0342 10.6454C11.4547 10.6454 11.8656 10.6805 12.2704 10.7348V11.9154V15.8243C11.8789 15.7023 11.4656 15.631 11.0342 15.631C8.72389 15.631 6.84373 17.5112 6.84373 19.8227C6.84373 21.4322 7.75723 22.8303 9.09123 23.5323C9.67243 23.838 10.3334 24.0132 11.0354 24.0132C13.2926 24.0132 15.1341 22.2176 15.2187 19.9798L15.2223 0H20.2079C20.2079 0.432583 20.2502 0.854292 20.3251 1.26513C20.6767 3.16463 21.8041 4.79467 23.3665 5.81329C24.454 6.52258 25.7517 6.93704 27.1437 6.93704L27.1449 11.9214Z" fill="white"/>
</svg>
