<svg width="29" height="29" viewBox="0 0 29 29" fill="none" xmlns="http://www.w3.org/2000/svg">
<g clip-path="url(#clip0_274_3704)">
<path d="M22.7762 0.0585938H6.17624C2.79756 0.0585938 0.0585938 2.79756 0.0585938 6.17624V22.7762C0.0585938 26.1549 2.79756 28.8939 6.17624 28.8939H22.7762C26.1549 28.8939 28.8939 26.1549 28.8939 22.7762V6.17624C28.8939 2.79756 26.1549 0.0585938 22.7762 0.0585938Z" fill="white"/>
<path d="M8.18799 8.33539C10.6115 8.33539 13.9292 8.21186 16.3115 8.27656C19.5056 8.35892 20.7115 9.75303 20.7527 13.1883C20.7939 15.1354 20.7527 20.7001 20.7527 20.7001H17.2939C17.2939 15.8295 17.3115 15.0236 17.2939 13.4883C17.2527 12.1354 16.8703 11.4942 15.8292 11.3707C14.7292 11.2472 11.6468 11.353 11.6468 11.353V20.706H8.18799V8.33539Z" fill="#040000"/>
<path d="M22.7762 0.0585938H6.17624C2.79756 0.0585938 0.0585938 2.79756 0.0585938 6.17624V22.7762C0.0585938 26.1549 2.79756 28.8939 6.17624 28.8939H22.7762C26.1549 28.8939 28.8939 26.1549 28.8939 22.7762V6.17624C28.8939 2.79756 26.1549 0.0585938 22.7762 0.0585938Z" stroke="#EBEBEB" stroke-width="0.117647"/>
</g>
<defs>
<clipPath id="clip0_274_3704">
<rect width="29" height="29" fill="white"/>
</clipPath>
</defs>
</svg>
