<svg width="29" height="29" viewBox="0 0 29 29" fill="none" xmlns="http://www.w3.org/2000/svg">
<g clip-path="url(#clip0_274_3291)">
<path d="M14.5 2.61242C18.3715 2.61242 18.8307 2.62692 20.3592 2.697C21.9397 2.7695 23.5673 3.12958 24.7189 4.28113C25.8813 5.44354 26.2305 7.05546 26.303 8.64079C26.3731 10.1693 26.3876 10.6285 26.3876 14.5C26.3876 18.3715 26.3731 18.8307 26.303 20.3592C26.2317 21.9313 25.8632 23.5746 24.7189 24.7189C23.5565 25.8813 21.9458 26.2305 20.3592 26.303C18.8307 26.3731 18.3715 26.3876 14.5 26.3876C10.6285 26.3876 10.1693 26.3731 8.64079 26.303C7.08083 26.2317 5.41575 25.8547 4.28113 24.7189C3.12475 23.5625 2.7695 21.9349 2.697 20.3592C2.62692 18.8307 2.61242 18.3715 2.61242 14.5C2.61242 10.6285 2.62692 10.1693 2.697 8.64079C2.76829 7.07479 3.14046 5.42179 4.28113 4.28113C5.44113 3.12113 7.05908 2.7695 8.64079 2.697C10.1693 2.62692 10.6285 2.61242 14.5 2.61242ZM14.5 0C10.562 0 10.0678 0.0169167 8.52117 0.087C6.27971 0.189708 4.05396 0.813208 2.43358 2.43358C0.807167 4.06 0.189708 6.28092 0.087 8.52117C0.0169167 10.0678 0 10.562 0 14.5C0 18.438 0.0169167 18.9322 0.087 20.4788C0.189708 22.7179 0.815625 24.9497 2.43358 26.5664C4.05879 28.1916 6.28333 28.8103 8.52117 28.913C10.0678 28.9831 10.562 29 14.5 29C18.438 29 18.9322 28.9831 20.4788 28.913C22.7191 28.8103 24.9473 28.1856 26.5664 26.5664C28.194 24.9388 28.8103 22.7191 28.913 20.4788C28.9831 18.9322 29 18.438 29 14.5C29 10.562 28.9831 10.0678 28.913 8.52117C28.8103 6.27971 28.1856 4.05275 26.5664 2.43358C24.9436 0.810792 22.713 0.1885 20.4788 0.087C18.9322 0.0169167 18.438 0 14.5 0Z" fill="white"/>
<path d="M14.4999 7.05078C10.388 7.05078 7.0542 10.3846 7.0542 14.4965C7.0542 18.6085 10.388 21.9423 14.4999 21.9423C18.6119 21.9423 21.9457 18.6085 21.9457 14.4965C21.9457 10.3846 18.6119 7.05078 14.4999 7.05078ZM14.4999 19.3299C11.8307 19.3299 9.66662 17.1657 9.66662 14.4965C9.66662 11.8273 11.8307 9.6632 14.4999 9.6632C17.1692 9.6632 19.3333 11.8273 19.3333 14.4965C19.3333 17.1657 17.1692 19.3299 14.4999 19.3299Z" fill="white"/>
<path d="M22.2405 8.49563C23.2015 8.49563 23.9805 7.7166 23.9805 6.75563C23.9805 5.79465 23.2015 5.01562 22.2405 5.01562C21.2795 5.01562 20.5005 5.79465 20.5005 6.75563C20.5005 7.7166 21.2795 8.49563 22.2405 8.49563Z" fill="white"/>
</g>
<defs>
<clipPath id="clip0_274_3291">
<rect width="29" height="29" fill="white"/>
</clipPath>
</defs>
</svg>
