<svg width="29" height="29" viewBox="0 0 29 29" fill="none" xmlns="http://www.w3.org/2000/svg">
<g clip-path="url(#clip0_274_3288)">
<path d="M29 14.5859C29 21.8226 23.6906 27.822 16.7596 28.9107V18.8054H20.1296L20.7713 14.6246H16.7596V11.9119C16.7596 10.7676 17.3203 9.65352 19.1158 9.65352H20.9392V6.09377C20.9392 6.09377 19.2838 5.81102 17.7021 5.81102C14.3985 5.81102 12.2404 7.81323 12.2404 11.437V14.6234H8.56829V18.8042H12.2404V28.9095C5.31063 27.8196 0 21.8214 0 14.5859C0 6.57831 6.49238 0.0859375 14.5 0.0859375C22.5076 0.0859375 29 6.5771 29 14.5859Z" fill="white"/>
</g>
<defs>
<clipPath id="clip0_274_3288">
<rect width="29" height="29" fill="white"/>
</clipPath>
</defs>
</svg>
