<svg width="29" height="29" viewBox="0 0 29 29" fill="none" xmlns="http://www.w3.org/2000/svg">
<g clip-path="url(#clip0_274_3280)">
<path d="M14.5 0C6.49238 0 0 6.49238 0 14.5C0 22.5088 6.49238 29 14.5 29C22.5088 29 29 22.5088 29 14.5C29 6.49238 22.5088 0 14.5 0ZM21.1495 20.9138C20.8885 21.3416 20.3326 21.4745 19.9073 21.2147C16.5022 19.134 12.2163 18.6639 7.16904 19.8167C6.68208 19.9278 6.19754 19.6233 6.08638 19.1376C5.97521 18.6518 6.2785 18.1661 6.76667 18.0561C12.29 16.7934 17.0278 17.3372 20.8498 19.6729C21.2763 19.9315 21.4105 20.4885 21.1495 20.9138ZM22.9245 16.9662C22.597 17.4979 21.901 17.6646 21.3694 17.3384C17.4725 14.9435 11.5311 14.2487 6.92013 15.6491C6.32321 15.8292 5.69125 15.492 5.51 14.8951C5.32996 14.297 5.66708 13.6675 6.264 13.485C11.5299 11.8864 18.0767 12.6609 22.5523 15.4111C23.084 15.7385 23.2508 16.4345 22.9245 16.9662ZM23.0768 12.8542C18.4029 10.0787 10.6938 9.82375 6.23138 11.1783C5.51483 11.3958 4.75721 10.991 4.53971 10.2745C4.32221 9.55792 4.727 8.80029 5.44354 8.58279C10.5657 7.02767 19.0796 7.32854 24.4603 10.5222C25.1043 10.9052 25.3158 11.7365 24.934 12.3806C24.5533 13.0246 23.7196 13.2373 23.0768 12.8542Z" fill="white"/>
</g>
<defs>
<clipPath id="clip0_274_3280">
<rect width="29" height="29" fill="white"/>
</clipPath>
</defs>
</svg>
