<svg width="29" height="29" viewBox="0 0 29 29" fill="none" xmlns="http://www.w3.org/2000/svg">
<path d="M24.5498 5.27752C22.7011 4.42927 20.7194 3.80456 18.6471 3.4469C18.6096 3.43965 18.5722 3.45777 18.5516 3.4916C18.2967 3.94473 18.0139 4.53681 17.817 5.00081C15.5876 4.66731 13.3703 4.66731 11.1869 5.00081C10.9899 4.52594 10.6963 3.94473 10.4413 3.4916C10.4208 3.45777 10.3833 3.44085 10.3459 3.4469C8.27477 3.80335 6.29311 4.42806 4.44315 5.27752C4.42744 5.28356 4.41294 5.29565 4.40448 5.31015C0.645355 10.9265 -0.385353 16.4051 0.11973 21.816C0.122147 21.8426 0.136647 21.8679 0.157189 21.8836C2.6379 23.7058 5.04006 24.8114 7.39873 25.5437C7.43619 25.5558 7.47606 25.5413 7.50023 25.5099C8.05848 24.7486 8.55511 23.9451 8.98165 23.1004C9.00702 23.0509 8.98286 22.9917 8.9309 22.9724C8.14186 22.6727 7.39148 22.3078 6.6689 21.8945C6.61211 21.8607 6.60727 21.7797 6.65923 21.7399C6.81148 21.6263 6.96373 21.5079 7.10873 21.3882C7.13531 21.3665 7.17156 21.3616 7.20298 21.3761C11.9493 23.5427 17.0871 23.5427 21.7767 21.3761C21.8081 21.3616 21.8444 21.3653 21.8721 21.3882C22.0171 21.5079 22.1694 21.6275 22.3229 21.7411C22.376 21.7797 22.3724 21.8619 22.3144 21.8957C21.5918 22.3174 20.8414 22.6751 20.0512 22.9724C19.9992 22.9917 19.9775 23.0521 20.0016 23.1016C20.4366 23.9451 20.9345 24.7486 21.4819 25.5099C21.5048 25.5425 21.5459 25.5558 21.5834 25.5449C23.9529 24.8114 26.3563 23.7058 28.8358 21.8849C28.8575 21.8691 28.8708 21.845 28.8732 21.8184C29.4774 15.5629 27.8606 10.129 24.5861 5.31256C24.58 5.29565 24.5655 5.28356 24.5498 5.27752ZM9.69094 18.5221C8.26148 18.5221 7.08456 17.2098 7.08456 15.5991C7.08456 13.9884 8.23852 12.6761 9.69094 12.6761C11.1542 12.6761 12.3203 13.9993 12.2973 15.5991C12.2973 17.211 11.1421 18.5221 9.69094 18.5221ZM19.3274 18.5221C17.8991 18.5221 16.721 17.2098 16.721 15.5991C16.721 13.9884 17.875 12.6761 19.3274 12.6761C20.7907 12.6761 21.9567 13.9993 21.9338 15.5991C21.9338 17.211 20.7907 18.5221 19.3274 18.5221Z" fill="white"/>
</svg>
