<svg width="29" height="29" viewBox="0 0 29 29" fill="none" xmlns="http://www.w3.org/2000/svg">
<path d="M14.7249 29H14.7164C10.3894 28.971 7.06285 27.544 4.82864 24.7588C2.83852 22.2805 1.81385 18.8319 1.77881 14.5109V14.4891C1.81385 10.1669 2.83852 6.71954 4.82864 4.24125C7.06164 1.45604 10.3894 0.029 14.7152 0H14.7321C18.049 0.02175 20.8234 0.874833 22.9802 2.53387C25.0078 4.09262 26.4336 6.31596 27.2215 9.13983L24.7565 9.82738C23.4237 5.04358 20.0476 2.59792 14.7237 2.55925C11.2086 2.58342 8.55031 3.68904 6.82239 5.84229C5.20323 7.859 4.36706 10.7723 4.33685 14.4988C4.36827 18.2265 5.20443 21.1398 6.82239 23.1553C8.55152 25.3085 11.2086 26.4142 14.7237 26.4383C17.8919 26.4154 19.9896 25.6771 21.7332 23.9685C23.7234 22.0183 23.6871 19.627 23.0503 18.1721C22.6757 17.3142 21.9942 16.6001 21.0759 16.0588C20.8451 17.69 20.3255 19.0143 19.5244 20.0124C18.455 21.344 16.9386 22.0714 15.0185 22.1753C13.5661 22.2539 12.1669 21.9095 11.0806 21.2075C9.7961 20.3761 9.04331 19.1038 8.96356 17.6248C8.88502 16.1868 9.45535 14.8649 10.5682 13.9019C11.6328 12.9811 13.1287 12.4422 14.8977 12.3431C16.2003 12.2706 17.4195 12.3274 18.5469 12.5159C18.3982 11.6193 18.0949 10.9076 17.6442 10.3941C17.0244 9.68721 16.0637 9.32592 14.7926 9.31746H14.7575C13.7377 9.31746 12.3517 9.59779 11.4672 10.9113L9.34418 9.48421C10.5259 7.72608 12.4472 6.75942 14.7563 6.75942H14.8083C18.6689 6.78358 20.9684 9.14467 21.1967 13.2687C21.3284 13.3243 21.4565 13.3823 21.5846 13.4415C23.3862 14.2885 24.7033 15.5706 25.3945 17.1499C26.3575 19.3515 26.4457 22.939 23.5228 25.8003C21.2898 27.9874 18.5783 28.9746 14.7321 29H14.7249ZM15.9369 14.8734C15.6444 14.8734 15.3472 14.8818 15.0451 14.8988C12.8266 15.0244 11.4431 16.0406 11.5216 17.487C11.6038 19.0035 13.2773 19.7091 14.8844 19.6221C16.3646 19.5424 18.2907 18.9672 18.6133 15.138C17.7965 14.964 16.8987 14.8722 15.9381 14.8722L15.9369 14.8734Z" fill="white"/>
</svg>
