<svg width="29" height="29" viewBox="0 0 29 29" fill="none" xmlns="http://www.w3.org/2000/svg">
<path d="M28.3934 7.47516C28.0599 6.2197 27.0775 5.23007 25.8293 4.89416C23.5685 4.28516 14.5 4.28516 14.5 4.28516C14.5 4.28516 5.43146 4.28516 3.16946 4.89416C1.92246 5.23007 0.940083 6.21849 0.606583 7.47516C0 9.75166 0 14.5004 0 14.5004C0 14.5004 0 19.2492 0.606583 21.5257C0.940083 22.7811 1.92246 23.7707 3.17067 24.1067C5.43146 24.7157 14.5 24.7157 14.5 24.7157C14.5 24.7157 23.5685 24.7157 25.8305 24.1067C27.0775 23.7707 28.0599 22.7823 28.3946 21.5257C29 19.2492 29 14.5004 29 14.5004C29 14.5004 29 9.75166 28.3934 7.47516ZM11.5347 18.8129V10.1879L19.1134 14.5004L11.5347 18.8129Z" fill="white"/>
</svg>
