<svg width="29" height="29" viewBox="0 0 29 29" fill="none" xmlns="http://www.w3.org/2000/svg">
<g clip-path="url(#clip0_274_3296)">
<path d="M22.4629 0H6.53708C2.92658 0 0 2.92658 0 6.53708V22.4629C0 26.0734 2.92658 29 6.53708 29H22.4629C26.0734 29 29 26.0734 29 22.4629V6.53708C29 2.92658 26.0722 0 22.4629 0ZM22.0932 17.9619C20.0644 20.2964 15.5295 23.1408 14.4976 23.5758C13.4657 24.0108 13.6179 23.2991 13.6602 23.0538C13.6856 22.9088 13.798 22.2261 13.798 22.2261C13.8306 21.9796 13.8644 21.5965 13.7665 21.3525C13.6578 21.083 13.23 20.944 12.9147 20.8752C8.26862 20.2613 4.8285 17.0133 4.8285 13.1346C4.8285 8.80875 9.16642 5.28767 14.4976 5.28767C19.8288 5.28767 24.1667 8.80754 24.1667 13.1346C24.1655 14.8649 23.4948 16.4249 22.0932 17.9619Z" fill="white"/>
<path d="M19.1037 12.0978V12.8096H20.95C21.0515 12.8096 21.1349 12.8929 21.1349 12.9944V13.6808C21.1349 13.7823 21.0527 13.8656 20.95 13.8656H19.1037V14.5773H20.95C21.0515 14.5773 21.1349 14.6607 21.1349 14.7622V15.4486C21.1349 15.5501 21.0527 15.6322 20.95 15.6322H18.2337C18.1322 15.6322 18.0488 15.5501 18.0488 15.4486V11.2278C18.0488 11.1263 18.131 11.043 18.2337 11.043H20.95C21.0515 11.043 21.1349 11.1251 21.1349 11.2278V11.913C21.1349 12.0145 21.0527 12.0978 20.95 12.0978H19.1037Z" fill="white"/>
<path d="M11.0849 14.7622V15.4486C11.0849 15.5501 11.0027 15.6322 10.9 15.6322H8.18367C8.08217 15.6322 8 15.5501 8 15.4486V11.2278C8 11.1263 8.08217 11.043 8.18367 11.043H8.87C8.9715 11.043 9.05488 11.1251 9.05488 11.2278V14.5773H10.9012C11.0027 14.5773 11.0849 14.6607 11.0849 14.7622Z" fill="white"/>
<path d="M12.7209 11.2278V15.4473C12.7209 15.5488 12.6387 15.631 12.536 15.631H11.8509C11.7494 15.631 11.666 15.5488 11.666 15.4473V11.2278C11.666 11.1263 11.7482 11.043 11.8509 11.043H12.536C12.6375 11.043 12.7209 11.1263 12.7209 11.2278Z" fill="white"/>
<path d="M17.3889 11.2278V15.4473C17.3889 15.5488 17.3067 15.631 17.204 15.631H16.5225C16.4621 15.631 16.4029 15.6008 16.3678 15.5513L14.4345 12.9413V15.4473C14.4345 15.5488 14.3523 15.631 14.2496 15.631H13.5633C13.4618 15.631 13.3784 15.5488 13.3784 15.4473V11.2278C13.3784 11.1263 13.4606 11.043 13.5633 11.043H14.2448C14.3088 11.043 14.3644 11.0768 14.4019 11.1263L16.3328 13.7339V11.2278C16.3328 11.1263 16.415 11.043 16.5177 11.043H17.204C17.3067 11.043 17.3889 11.1263 17.3889 11.2278Z" fill="white"/>
</g>
<defs>
<clipPath id="clip0_274_3296">
<rect width="29" height="29" fill="white"/>
</clipPath>
</defs>
</svg>
