<svg width="9" height="9" viewBox="0 0 9 9" fill="none" xmlns="http://www.w3.org/2000/svg">
<path d="M1.48047 8.04883L1.47559 8.12012C1.47781 8.12731 1.47997 8.13451 1.48242 8.1416L1.48438 8.02051L1.48047 8.04883ZM1.48047 8.04883L1.48633 7.95117V7.9043L1.48438 7.90234M1.48047 8.04883L1.47168 8.10352C1.46938 8.0954 1.46686 8.08734 1.46484 8.0791M1.46484 8.0791L1.48438 7.90234M1.46484 8.0791L1.48438 7.90234M1.46484 8.0791C1.4593 8.05643 1.45543 8.03328 1.45215 8.00977L1.47559 7.89551L1.48438 7.90234M1.5332 7.70605L1.52246 7.73145L1.53613 7.6875M1.5332 7.70605L1.53613 7.6875M1.5332 7.70605L1.53125 7.71484L1.69727 7.38184C1.68997 7.37826 1.68249 7.37595 1.67578 7.37305L1.5332 7.70605ZM1.53613 7.6875L1.63965 7.36035M1.53613 7.6875L1.55273 7.58008L1.61816 7.35254C1.62488 7.35447 1.63182 7.3577 1.63965 7.36035M1.63965 7.36035C1.64928 7.36362 1.65993 7.36653 1.6709 7.37109C1.65912 7.36615 1.64879 7.3615 1.63965 7.3584V7.36035ZM1.79199 8.14453L1.78613 8.14941C1.78078 8.15374 1.77284 8.15944 1.76367 8.16602L1.70312 8.0752L1.79199 8.14453ZM4.2998 0.62207C4.38103 0.461521 4.60304 0.463818 4.68457 0.604492L4.69922 0.629883L4.70605 0.639648L5.69727 2.64648L5.81348 2.88281L6.07324 2.9209L8.30957 3.24414V3.24512C8.48849 3.2713 8.55902 3.48578 8.4375 3.61426L8.42676 3.62598L6.81055 5.2002L6.62207 5.38379L6.66699 5.64355L7.0498 7.87207C7.08025 8.05399 6.89008 8.18757 6.73145 8.10352L6.72852 8.10254L4.73047 7.05273L4.49805 6.92969L4.26562 7.05273L2.26953 8.10156L2.26758 8.10254C2.11612 8.18312 1.92859 8.05996 1.94531 7.88965L1.94824 7.87012L2.33008 5.64258L2.37402 5.38281L2.18555 5.19922L0.566406 3.62305C0.432891 3.49046 0.512932 3.27002 0.6875 3.24414L2.92285 2.9209L3.18359 2.88281L3.2998 2.64746L4.2998 0.62207ZM1.5459 7.80078L1.52148 7.79883L1.52051 7.79688L1.5459 7.80078Z" stroke="#E4A227"/>
</svg>
