<svg width="42" height="42" viewBox="0 0 42 42" fill="none" xmlns="http://www.w3.org/2000/svg">
<path fill-rule="evenodd" clip-rule="evenodd" d="M34 9.34961C35.4636 9.34961 36.6504 10.5364 36.6504 12V32C36.6504 33.4636 35.4636 34.6504 34 34.6504H7C5.53645 34.6504 4.34961 33.4636 4.34961 32V12C4.34961 10.5364 5.53645 9.34961 7 9.34961H34ZM8.65039 29.3105C8.29141 29.3105 8 29.602 8 29.9609C8 30.3199 8.2914 30.6113 8.65039 30.6113H23.6504C24.0094 30.6113 24.3008 30.3199 24.3008 29.9609C24.3008 29.602 24.0094 29.3105 23.6504 29.3105H8.65039ZM26.6504 29.3105C26.2914 29.3105 26 29.602 26 29.9609C26 30.3199 26.2914 30.6113 26.6504 30.6113H32.6504C33.0094 30.6113 33.3008 30.3199 33.3008 29.9609C33.3008 29.602 33.0094 29.3105 32.6504 29.3105H26.6504ZM8.65039 25.0098C8.29141 25.0098 8 25.3012 8 25.6602C8 26.0191 8.29141 26.3105 8.65039 26.3105H14.6504C15.0094 26.3105 15.3008 26.0191 15.3008 25.6602C15.3008 25.3012 15.0094 25.0098 14.6504 25.0098H8.65039ZM17.6504 25.0098C17.2914 25.0098 17 25.3012 17 25.6602C17 26.0191 17.2914 26.3105 17.6504 26.3105H32.6504C33.0094 26.3105 33.3008 26.0191 33.3008 25.6602C33.3008 25.3012 33.0094 25.0098 32.6504 25.0098H17.6504Z" fill="white"/>
</svg>
