<svg width="40" height="41" viewBox="0 0 40 41" fill="none" xmlns="http://www.w3.org/2000/svg">
<path d="M12.7971 1.10825C9.53841 2.22408 6.74493 4.0859 4.53723 6.433L3.02584 4.88593C2.68439 4.53622 2.09024 4.71372 1.99695 5.19337L0.80591 11.3412C0.725504 11.7566 1.08509 12.1243 1.50225 12.0537L7.67561 11.01C8.15765 10.9284 8.34931 10.3387 8.00776 9.9889L6.44377 8.3855C8.36839 6.3126 10.8159 4.6701 13.6808 3.68912C22.9416 0.51827 33.0188 5.45464 36.1899 14.7154C39.3609 23.9762 34.4248 34.0545 25.1641 37.2256C15.9032 40.3966 5.82452 35.4595 2.65349 26.1986C2.40954 25.4864 1.63496 25.1071 0.922727 25.3508C0.210405 25.5947 -0.170055 26.3696 0.0737597 27.0819C3.73264 37.7676 15.3617 43.4642 26.0474 39.8053C36.7329 36.1463 42.4296 24.5172 38.7708 13.8316C35.1119 3.14617 23.4827 -2.55045 12.7971 1.10825Z" fill="white"/>
<path d="M23.5075 14.8994C24.3888 14.8994 25.1351 15.076 25.7461 15.4284C26.3688 15.7809 26.8744 16.2566 27.2622 16.8557C27.65 17.4433 27.9327 18.1372 28.109 18.9363C28.2853 19.7236 28.3735 20.5581 28.3735 21.4394C28.3735 22.3208 28.2853 23.1611 28.109 23.9603C27.9327 24.7594 27.65 25.4653 27.2622 26.0764C26.8744 26.6754 26.3687 27.1573 25.7461 27.5214C25.1351 27.8738 24.3887 28.0504 23.5075 28.0504C22.6263 28.0504 21.874 27.8739 21.2512 27.5214C20.6285 27.1572 20.1169 26.6755 19.7174 26.0764C19.3296 25.4653 19.0486 24.7593 18.8724 23.9603C18.6961 23.1611 18.6078 22.3208 18.6078 21.4394C18.6078 20.558 18.6961 19.7237 18.8724 18.9363C19.0486 18.1372 19.3296 17.4433 19.7174 16.8557C20.1169 16.2565 20.6285 15.7809 21.2512 15.4284C21.874 15.0759 22.6263 14.8994 23.5075 14.8994ZM16.9941 26.2344C16.9941 27.0521 16.3313 27.7149 15.5136 27.7149C14.6959 27.7149 14.033 27.0521 14.033 26.2344V18.5493L12.7481 19.5412C12.1769 19.9821 11.3545 19.8652 10.9287 19.2826C10.5114 18.7116 10.6352 17.9105 11.2053 17.4919L13.7996 15.5874C14.1116 15.3584 14.4884 15.2349 14.8754 15.2349H15.1763C16.1803 15.2349 16.9941 16.0488 16.9941 17.0528V26.2344ZM23.5075 17.4025C23.1201 17.4026 22.8027 17.5433 22.556 17.825C22.3093 18.0952 22.1147 18.4364 21.9737 18.8475C21.8445 19.247 21.7562 19.6824 21.7092 20.1523C21.6622 20.6224 21.64 21.0516 21.64 21.4394C21.64 21.839 21.6622 22.2801 21.7092 22.762C21.7562 23.2316 21.8446 23.6718 21.9737 24.0828C22.1147 24.4821 22.3094 24.8233 22.556 25.1053C22.8027 25.3755 23.1199 25.5118 23.5075 25.5118C23.8953 25.5118 24.2063 25.3756 24.4413 25.1053C24.6881 24.8233 24.8766 24.4823 25.0059 24.0828C25.135 23.6718 25.2234 23.2316 25.2704 22.762C25.3174 22.2801 25.3414 21.839 25.3414 21.4394C25.3414 21.0516 25.3174 20.6224 25.2704 20.1523C25.2233 19.6824 25.1351 19.247 25.0059 18.8475C24.8766 18.4365 24.688 18.0951 24.4413 17.825C24.2064 17.5435 23.895 17.4025 23.5075 17.4025Z" fill="white"/>
</svg>
