<svg width="26" height="26" viewBox="0 0 26 26" fill="none" xmlns="http://www.w3.org/2000/svg">
<path d="M19.5 19.5H6.5C4.25745 19.4973 2.44019 17.6801 2.4375 15.4375V7.3125C2.44019 5.06995 4.25745 3.25269 6.5 3.25H19.5C21.7426 3.25269 23.5598 5.06995 23.5625 7.3125V15.4375C23.5598 17.6801 21.7426 19.4973 19.5 19.5ZM6.5 4.875C5.15379 4.875 4.0625 5.96629 4.0625 7.3125V15.4375C4.0625 16.7837 5.15379 17.875 6.5 17.875H19.5C20.8462 17.875 21.9375 16.7837 21.9375 15.4375V7.3125C21.9375 5.96629 20.8462 4.875 19.5 4.875H6.5Z" fill="#E4A227"/>
<path d="M21.125 22.75H4.875C4.42625 22.75 4.0625 22.3863 4.0625 21.9375C4.0625 21.4887 4.42625 21.125 4.875 21.125H21.125C21.5738 21.125 21.9375 21.4887 21.9375 21.9375C21.9375 22.3863 21.5738 22.75 21.125 22.75Z" fill="#E4A227"/>
<path d="M11.4668 15.6586C10.571 15.6546 9.84581 14.9294 9.8418 14.0336V8.72065C9.8418 7.8232 10.5694 7.09565 11.4668 7.0957C11.7521 7.0957 12.0323 7.17081 12.2793 7.3134L16.8772 9.96865C17.6544 10.4174 17.9207 11.4112 17.4719 12.1885C17.3293 12.4355 17.1242 12.6405 16.8772 12.7832L12.2793 15.4384C12.0327 15.5822 11.7523 15.6582 11.4668 15.6586ZM16.0655 11.3759L11.4668 8.72065V14.0312L16.0655 11.3759Z" fill="#E4A227"/>
</svg>
