<svg width="22" height="22" viewBox="0 0 22 22" fill="none" xmlns="http://www.w3.org/2000/svg">
<path d="M9.17492 9.85417C8.40439 9.85417 7.65117 9.62568 7.01051 9.1976C6.36984 8.76952 5.8705 8.16108 5.57564 7.44921C5.28077 6.73734 5.20362 5.95401 5.35394 5.1983C5.50426 4.44258 5.8753 3.74841 6.42015 3.20356C6.96499 2.65872 7.65916 2.28768 8.41488 2.13736C9.17059 1.98704 9.95392 2.06419 10.6658 2.35905C11.3777 2.65392 11.9861 3.15326 12.4142 3.79393C12.8423 4.43459 13.0708 5.18781 13.0708 5.95834C13.0695 6.9912 12.6587 7.98142 11.9283 8.71177C11.198 9.44211 10.2078 9.85296 9.17492 9.85417ZM9.17492 3.4375C8.67634 3.4375 8.18897 3.58535 7.77442 3.86234C7.35987 4.13933 7.03677 4.53303 6.84597 4.99365C6.65517 5.45428 6.60525 5.96113 6.70252 6.45013C6.79979 6.93912 7.03987 7.38829 7.39242 7.74083C7.74496 8.09338 8.19413 8.33346 8.68313 8.43073C9.17212 8.528 9.67898 8.47808 10.1396 8.28728C10.6002 8.09649 10.9939 7.77338 11.2709 7.35883C11.5479 6.94429 11.6958 6.45691 11.6958 5.95834C11.6953 5.28992 11.4295 4.64902 10.9569 4.17637C10.4842 3.70373 9.84333 3.43799 9.17492 3.4375ZM10.0833 19.9375H5.5C3.2835 19.9375 2.0625 18.7229 2.0625 16.5183C2.0625 14.0782 3.443 11.2292 7.33333 11.2292H11C11.7064 11.2168 12.4092 11.3311 13.0753 11.5665C13.2333 11.6392 13.3579 11.7691 13.4239 11.93C13.49 12.0909 13.4926 12.2709 13.4312 12.4336C13.3698 12.5964 13.249 12.7298 13.0932 12.8071C12.9373 12.8843 12.758 12.8996 12.5913 12.8498C12.0798 12.6738 11.5408 12.5906 11 12.6042H7.33333C6.80986 12.5638 6.28386 12.6376 5.79165 12.8203C5.29943 13.003 4.85272 13.2903 4.48234 13.6624C4.11196 14.0345 3.82674 14.4826 3.64635 14.9756C3.46596 15.4687 3.3947 15.9951 3.4375 16.5183C3.4375 17.9511 4.05442 18.5625 5.5 18.5625H10.0833C10.2657 18.5625 10.4405 18.6349 10.5695 18.7639C10.6984 18.8928 10.7708 19.0677 10.7708 19.25C10.7708 19.4323 10.6984 19.6072 10.5695 19.7361C10.4405 19.8651 10.2657 19.9375 10.0833 19.9375ZM18.4772 20.7891C18.297 20.7887 18.1195 20.7453 17.9593 20.6626L16.5 19.9118L15.0416 20.6626C14.8544 20.7606 14.6433 20.804 14.4326 20.7878C14.2219 20.7716 14.02 20.6964 13.8499 20.5709C13.682 20.4491 13.5519 20.2824 13.4747 20.0898C13.3975 19.8973 13.3763 19.6869 13.4136 19.4828L13.6886 17.9153L12.4804 16.7622C12.3326 16.621 12.2276 16.441 12.1775 16.2428C12.1275 16.0446 12.1343 15.8363 12.1973 15.6419C12.2603 15.4474 12.3769 15.2747 12.5337 15.1435C12.6905 15.0124 12.8811 14.9281 13.0836 14.9004L14.7666 14.6621L15.4908 13.2238C15.5851 13.0374 15.7293 12.8809 15.9073 12.7715C16.0853 12.6621 16.2902 12.6042 16.4991 12.6042C16.708 12.6042 16.9128 12.6621 17.0908 12.7715C17.2688 12.8809 17.413 13.0374 17.5074 13.2238L18.2316 14.6612L19.9146 14.8995C20.1172 14.9272 20.3079 15.0115 20.4648 15.1428C20.6216 15.2741 20.7382 15.447 20.8011 15.6416C20.864 15.8362 20.8707 16.0446 20.8204 16.2428C20.7701 16.4411 20.6649 16.6211 20.5168 16.7622L19.3087 17.9117L19.5837 19.4801C19.6201 19.6842 19.5984 19.8944 19.521 20.0868C19.4437 20.2792 19.3139 20.446 19.1464 20.5682C18.9528 20.7115 18.7182 20.789 18.4772 20.7891ZM16.5 18.5029C16.6757 18.5026 16.8489 18.5444 17.0051 18.6248L18.1408 19.2097L17.9282 17.9942C17.8974 17.8184 17.9105 17.6377 17.9663 17.4682C18.0222 17.2987 18.1189 17.1456 18.2481 17.0225L19.1363 16.1755L17.8943 15.9995C17.7193 15.9744 17.5529 15.9074 17.4093 15.8043C17.2657 15.7012 17.1491 15.5651 17.0693 15.4073L16.5 14.2798L15.9308 15.4092C15.8507 15.5666 15.734 15.7024 15.5904 15.8051C15.4468 15.9079 15.2805 15.9745 15.1058 15.9995L13.8637 16.1755L14.7519 17.0234C14.8809 17.1461 14.9776 17.2987 15.0336 17.4677C15.0895 17.6367 15.103 17.8169 15.0728 17.9923L14.8601 19.2097L15.9958 18.6248C16.1518 18.5446 16.3246 18.5028 16.5 18.5029Z" fill="#E4A227"/>
</svg>
