<svg width="26" height="26" viewBox="0 0 26 26" fill="none" xmlns="http://www.w3.org/2000/svg">
<path d="M19.5 19.5H6.5C4.25745 19.4973 2.44019 17.6801 2.4375 15.4375V7.3125C2.44019 5.06995 4.25745 3.25269 6.5 3.25H19.5C21.7426 3.25269 23.5598 5.06995 23.5625 7.3125V15.4375C23.5598 17.6801 21.7426 19.4973 19.5 19.5ZM6.5 4.875C5.15379 4.875 4.0625 5.96629 4.0625 7.3125V15.4375C4.0625 16.7837 5.15379 17.875 6.5 17.875H19.5C20.8462 17.875 21.9375 16.7837 21.9375 15.4375V7.3125C21.9375 5.96629 20.8462 4.875 19.5 4.875H6.5Z" fill="#ADA79D"/>
<path d="M21.125 22.75H4.875C4.42625 22.75 4.0625 22.3863 4.0625 21.9375C4.0625 21.4887 4.42625 21.125 4.875 21.125H21.125C21.5738 21.125 21.9375 21.4887 21.9375 21.9375C21.9375 22.3863 21.5738 22.75 21.125 22.75Z" fill="#ADA79D"/>
<path d="M11.4668 15.6576C10.571 15.6536 9.84581 14.9284 9.8418 14.0326V8.71968C9.8418 7.82222 10.5694 7.09468 11.4668 7.09473C11.7521 7.09473 12.0323 7.16983 12.2793 7.31243L16.8772 9.96768C17.6544 10.4164 17.9207 11.4103 17.4719 12.1875C17.3293 12.4345 17.1242 12.6395 16.8772 12.7822L12.2793 15.4374C12.0327 15.5812 11.7523 15.6572 11.4668 15.6576ZM16.0655 11.3749L11.4668 8.71968V14.0302L16.0655 11.3749Z" fill="#ADA79D"/>
</svg>
