<svg width="40" height="41" viewBox="0 0 40 41" fill="none" xmlns="http://www.w3.org/2000/svg">
<path d="M27.082 1.10825C30.341 2.22408 33.134 4.0859 35.342 6.433L36.853 4.88593C37.195 4.53622 37.789 4.71372 37.882 5.19337L39.073 11.3412C39.154 11.7566 38.794 12.1243 38.377 12.0537L32.204 11.01C31.722 10.9284 31.53 10.3387 31.871 9.9889L33.435 8.3855C31.511 6.3126 29.063 4.6701 26.198 3.68912C16.938 0.51827 6.85996 5.45464 3.68896 14.7154C0.517958 23.9762 5.45396 34.0545 14.715 37.2256C23.976 40.3966 34.055 35.4595 37.226 26.1986C37.47 25.4864 38.244 25.1071 38.957 25.3508C39.669 25.5947 40.049 26.3696 39.805 27.0819C36.147 37.7676 24.517 43.4642 13.832 39.8053C3.14596 36.1463 -2.55004 24.5172 1.10796 13.8316C4.76696 3.14617 16.397 -2.55045 27.082 1.10825Z" fill="white"/>
<path d="M24.5077 14.8994C25.3887 14.8994 26.1347 15.076 26.7457 15.4284C27.3687 15.7809 27.8747 16.2566 28.2617 16.8557C28.6497 17.4433 28.9327 18.1372 29.1087 18.9363C29.2857 19.7236 29.3737 20.5581 29.3737 21.4394C29.3737 22.3208 29.2857 23.1611 29.1087 23.9603C28.9327 24.7594 28.6497 25.4653 28.2617 26.0764C27.8747 26.6754 27.3687 27.1573 26.7457 27.5214C26.1347 27.8738 25.3887 28.0504 24.5077 28.0504C23.6267 28.0504 22.8737 27.8739 22.2507 27.5214C21.6287 27.1572 21.1167 26.6755 20.7177 26.0764C20.3297 25.4653 20.0487 24.7593 19.8727 23.9603C19.6957 23.1611 19.6077 22.3208 19.6077 21.4394C19.6077 20.558 19.6957 19.7237 19.8727 18.9363C20.0487 18.1372 20.3297 17.4433 20.7177 16.8557C21.1167 16.2565 21.6287 15.7809 22.2507 15.4284C22.8737 15.0759 23.6267 14.8994 24.5077 14.8994ZM17.9937 26.2344C17.9937 27.0521 17.3317 27.7149 16.5137 27.7149C15.6957 27.7149 15.0327 27.0521 15.0327 26.2344V18.5493L13.7477 19.5412C13.1767 19.9821 12.3547 19.8652 11.9287 19.2826C11.5117 18.7116 11.6347 17.9105 12.2057 17.4919L14.7997 15.5874C15.1117 15.3584 15.4887 15.2349 15.8757 15.2349H16.1767C17.1807 15.2349 17.9937 16.0488 17.9937 17.0528V26.2344ZM24.5077 17.4025C24.1197 17.4026 23.8027 17.5433 23.5557 17.825C23.3097 18.0952 23.1147 18.4364 22.9737 18.8475C22.8447 19.247 22.7567 19.6824 22.7097 20.1523C22.6627 20.6224 22.6397 21.0516 22.6397 21.4394C22.6397 21.839 22.6627 22.2801 22.7097 22.762C22.7557 23.2316 22.8447 23.6718 22.9737 24.0828C23.1147 24.4821 23.3097 24.8233 23.5557 25.1053C23.8027 25.3755 24.1197 25.5118 24.5077 25.5118C24.8957 25.5118 25.2067 25.3756 25.4417 25.1053C25.6877 24.8233 25.8767 24.4823 26.0057 24.0828C26.1347 23.6718 26.2237 23.2316 26.2707 22.762C26.3177 22.2801 26.3417 21.839 26.3417 21.4394C26.3417 21.0516 26.3177 20.6224 26.2707 20.1523C26.2237 19.6824 26.1347 19.247 26.0057 18.8475C25.8767 18.4365 25.6877 18.0951 25.4417 17.825C25.2067 17.5435 24.8947 17.4025 24.5077 17.4025Z" fill="white"/>
</svg>
