<svg width="26" height="26" viewBox="0 0 26 26" fill="none" xmlns="http://www.w3.org/2000/svg">
<path d="M23.1412 17.8354L21.6305 16.2962C21.4193 16.0814 21.303 15.797 21.303 15.4959V10.8418C21.303 7.085 18.7949 3.90355 15.3651 2.88285C15.3961 2.72848 15.4123 2.57055 15.4123 2.41211C15.4123 1.08215 14.3302 0 13.0002 0C11.6703 0 10.5881 1.08215 10.5881 2.41211C10.5881 2.57207 10.6039 2.72949 10.6338 2.88336C7.20507 3.90457 4.69749 7.08551 4.69749 10.8418V15.4959C4.69749 15.797 4.5812 16.0814 4.36995 16.2962L2.85921 17.8354C2.02031 18.6895 1.78671 19.9062 2.25034 21.0107C2.71347 22.1147 3.74534 22.8008 4.94277 22.8008H9.39577C9.61007 24.6 11.1442 26 13.0002 26C14.8563 26 16.3904 24.6 16.6047 22.8008H21.0577C22.2551 22.8008 23.287 22.1147 23.7501 21.0107C24.2137 19.9062 23.9801 18.6895 23.1412 17.8354ZM12.3655 2.41211C12.3655 2.06223 12.6503 1.77734 13.0002 1.77734C13.3501 1.77734 13.635 2.06223 13.635 2.41211C13.635 2.46695 13.6279 2.51621 13.6167 2.56191C13.4131 2.54719 13.2074 2.53906 13.0002 2.53906C12.793 2.53906 12.5874 2.54719 12.3837 2.56191C12.3726 2.51672 12.3655 2.46695 12.3655 2.41211ZM13.0002 24.2227C12.1268 24.2227 11.393 23.6153 11.198 22.8008H14.8025C14.6075 23.6153 13.8737 24.2227 13.0002 24.2227ZM22.1114 20.3232C22.0423 20.4877 21.7625 21.0234 21.0577 21.0234H4.94277C4.23792 21.0234 3.95812 20.4872 3.88906 20.3232C3.81999 20.1586 3.63363 19.5838 4.12722 19.0805L5.63847 17.5414C6.17777 16.9919 6.47484 16.2657 6.47484 15.4959V10.8418C6.47484 7.24395 9.40187 4.31641 13.0002 4.31641C16.5986 4.31641 19.5256 7.24395 19.5256 10.8418V15.4959C19.5256 16.2657 19.8227 16.9919 20.362 17.5414L21.8732 19.0805C22.3668 19.5833 22.1805 20.1586 22.1114 20.3232Z" fill="white"/>
</svg>
