<svg width="22" height="22" viewBox="0 0 22 22" fill="none" xmlns="http://www.w3.org/2000/svg">
<path d="M11.2402 10.5417C10.4696 10.5417 9.71642 10.3132 9.07576 9.8851C8.43509 9.45702 7.93575 8.84858 7.64089 8.13671C7.34602 7.42484 7.26887 6.64151 7.41919 5.8858C7.56951 5.13008 7.94055 4.43591 8.4854 3.89106C9.03024 3.34622 9.72441 2.97518 10.4801 2.82486C11.2358 2.67454 12.0192 2.75169 12.731 3.04655C13.4429 3.34142 14.0514 3.84076 14.4794 4.48143C14.9075 5.12209 15.136 5.87531 15.136 6.64584C15.1348 7.6787 14.7239 8.66892 13.9936 9.39927C13.2632 10.1296 12.273 10.5405 11.2402 10.5417ZM11.2402 4.125C10.7416 4.125 10.2542 4.27285 9.83967 4.54984C9.42512 4.82683 9.10202 5.22053 8.91122 5.68115C8.72042 6.14178 8.6705 6.64863 8.76777 7.13763C8.86504 7.62662 9.10512 8.07579 9.45767 8.42833C9.81021 8.78088 10.2594 9.02096 10.7484 9.11823C11.2374 9.2155 11.7442 9.16558 12.2048 8.97478C12.6655 8.78399 13.0592 8.46088 13.3362 8.04633C13.6132 7.63179 13.761 7.14441 13.761 6.64584C13.7605 5.97742 13.4948 5.33652 13.0221 4.86387C12.5495 4.39123 11.9086 4.12549 11.2402 4.125ZM14.8986 20.625H7.56525C5.34692 20.625 4.125 19.4104 4.125 17.2049C4.125 14.7648 5.5055 11.9167 9.39583 11.9167H13.0625C16.9528 11.9167 18.3333 14.7648 18.3333 17.2049C18.3361 19.4104 17.1142 20.625 14.8986 20.625ZM9.39858 13.2917C8.87515 13.2512 8.34917 13.3248 7.85696 13.5074C7.36474 13.69 6.91801 13.9772 6.54761 14.3493C6.17722 14.7213 5.89198 15.1693 5.71158 15.6623C5.53119 16.1554 5.45994 16.6817 5.50275 17.2049C5.50275 18.6386 6.12058 19.25 7.568 19.25H14.8986C16.346 19.25 16.9638 18.6386 16.9638 17.2049C17.0067 16.6814 16.9354 16.1549 16.7548 15.6616C16.5743 15.1684 16.2888 14.7202 15.9181 14.3481C15.5474 13.976 15.1003 13.6889 14.6077 13.5065C14.1152 13.3241 13.5889 13.2508 13.0653 13.2917H9.39858Z" fill="#ADA79D"/>
</svg>
