<svg width="42" height="42" viewBox="0 0 42 42" fill="none" xmlns="http://www.w3.org/2000/svg">
<path d="M5 12C5 10.8954 5.89543 10 7 10H34C35.1046 10 36 10.8954 36 12V32C36 33.1046 35.1046 34 34 34H7C5.89543 34 5 33.1046 5 32V12Z" stroke="white" stroke-width="1.3"/>
<path d="M14.6504 25.0098C15.0094 25.0098 15.3008 25.3012 15.3008 25.6602C15.3008 26.0191 15.0094 26.3105 14.6504 26.3105H8.65039C8.29141 26.3105 8 26.0191 8 25.6602C8 25.3012 8.29141 25.0098 8.65039 25.0098H14.6504Z" fill="white"/>
<path d="M32.6504 25.0098C33.0094 25.0098 33.3008 25.3012 33.3008 25.6602C33.3008 26.0191 33.0094 26.3105 32.6504 26.3105H17.6504C17.2914 26.3105 17 26.0191 17 25.6602C17 25.3012 17.2914 25.0098 17.6504 25.0098H32.6504Z" fill="white"/>
<path d="M26.6504 30.6113C26.2914 30.6113 26 30.3199 26 29.9609C26 29.602 26.2914 29.3105 26.6504 29.3105H32.6504C33.0094 29.3105 33.3008 29.602 33.3008 29.9609C33.3008 30.3199 33.0094 30.6113 32.6504 30.6113H26.6504Z" fill="white"/>
<path d="M8.65039 30.6113C8.29141 30.6113 8 30.3199 8 29.9609C8 29.602 8.29141 29.3105 8.65039 29.3105H23.6504C24.0094 29.3105 24.3008 29.602 24.3008 29.9609C24.3008 30.3199 24.0094 30.6113 23.6504 30.6113H8.65039Z" fill="white"/>
</svg>
