<svg width="26" height="25" viewBox="0 0 26 25" fill="none" xmlns="http://www.w3.org/2000/svg">
<path d="M12.6964 4.6865C12.8594 4.61593 13.0492 4.64952 13.1782 4.77198L20.5115 11.7334L20.5705 11.8023C20.6221 11.8766 20.6504 11.9658 20.6504 12.0579C20.6503 12.1805 20.6002 12.298 20.5115 12.3823L13.1782 19.3438C13.0492 19.4661 12.8593 19.4998 12.6964 19.4292C12.5337 19.3586 12.4282 19.1974 12.4282 19.0193V15.1072C9.46023 15.1642 6.89845 16.8945 5.63303 19.4048C5.54696 19.5754 5.36228 19.6726 5.17383 19.6455C4.98524 19.6183 4.83455 19.4726 4.7997 19.2844C4.70348 18.7638 4.65041 18.226 4.65039 17.6751C4.65039 13.1535 8.05762 9.43139 12.4282 8.97796V5.09646C12.4282 4.91831 12.5337 4.75719 12.6964 4.6865Z" stroke="white" stroke-width="1.3" stroke-linejoin="round"/>
</svg>
