<svg width="22" height="22" viewBox="0 0 22 22" fill="none" xmlns="http://www.w3.org/2000/svg">
<g clip-path="url(#clip0_2_12)">
<mask id="mask0_2_12" style="mask-type:luminance" maskUnits="userSpaceOnUse" x="0" y="0" width="22" height="22">
<path d="M22 0H0V22H22V0Z" fill="white"/>
</mask>
<g mask="url(#mask0_2_12)">
<path d="M5.68366 2.69348H19.5513C20.2214 2.69348 20.8401 2.96413 21.2783 3.40233C21.7165 3.84052 22 4.45915 22 5.12933V13.803C22 14.4732 21.7165 15.0918 21.2783 15.53C20.8401 15.9682 20.2343 16.2389 19.5513 16.2389H18.7522V16.8704C18.7522 17.5406 18.4815 18.1463 18.0434 18.5974C17.5923 19.0356 16.9865 19.3063 16.3163 19.3063H2.43585C1.76567 19.3063 1.15993 19.0356 0.721734 18.5974C0.27065 18.1463 0 17.5406 0 16.8704V8.1967C0 6.84345 1.09549 5.74796 2.43585 5.74796H3.2478V5.12933C3.2478 4.45915 3.51845 3.84052 3.95665 3.40233C4.39484 2.96413 5.01347 2.69348 5.68366 2.69348ZM16.3163 6.77901C11.6895 6.77901 7.06268 6.77901 2.43585 6.77901C1.66257 6.77901 1.03105 7.42342 1.03105 8.1967V16.8704C1.03105 17.257 1.18571 17.605 1.44347 17.8628C1.70123 18.1205 2.04921 18.2752 2.43585 18.2752H16.3163C16.703 18.2752 17.051 18.1205 17.3087 17.8628C17.5665 17.605 17.7211 17.257 17.7211 16.8704V15.7234V8.1967C17.7211 7.41053 17.0767 6.77901 16.3163 6.77901ZM19.5513 3.72453H5.68366C5.29701 3.72453 4.93615 3.87919 4.69127 4.13695C4.43351 4.39471 4.27885 4.74269 4.27885 5.12933V5.74796H16.3163H16.3421H16.3808H16.4066L16.4452 5.76085H16.471H16.4968H16.5354H16.5612L16.5999 5.77374H16.6257H16.6514H16.6901L16.7159 5.78663H16.7417L16.7803 5.79952H16.8061L16.8319 5.8124C17.9274 6.05728 18.7522 6.99811 18.7522 8.1967V15.2078H19.5513C19.9379 15.2078 20.2988 15.0532 20.5565 14.7954C20.8014 14.5377 20.969 14.1897 20.969 13.803V5.12933C20.969 4.74269 20.8014 4.39471 20.5565 4.13695C20.2988 3.87919 19.9379 3.72453 19.5513 3.72453Z" fill="white"/>
<path d="M7.46723 14.9522C7.57834 15 7.6339 15 7.74501 15C7.85612 15 7.96723 15 8.02279 14.9522L11.9117 12.9426C12.0783 12.8469 12.1895 12.7033 12.1895 12.512C12.1895 12.3206 12.0783 12.177 11.9117 12.0813L8.02279 10.0718C7.85612 9.97607 7.6339 9.97607 7.46723 10.0718C7.30056 10.1675 7.18945 10.311 7.18945 10.5024V14.5215C7.18945 14.7129 7.30056 14.8565 7.46723 14.9522Z" fill="white"/>
</g>
</g>
<defs>
<clipPath id="clip0_2_12">
<rect width="22" height="22" fill="white"/>
</clipPath>
</defs>
</svg>
