<svg width="22" height="22" viewBox="0 0 22 22" fill="none" xmlns="http://www.w3.org/2000/svg">
<path fill-rule="evenodd" clip-rule="evenodd" d="M9.41606 1.01716C10.0432 -0.28908 11.815 -0.347362 12.5089 0.901087C12.5357 0.938602 12.5603 0.979178 12.5807 1.02216L15.0224 6.18317L20.4898 7.01068C21.9322 7.23078 22.5164 9.08516 21.4605 10.151L21.4569 10.1522L21.4522 10.1572L17.5012 14.1687L18.4371 19.8502C18.6828 21.3521 17.1701 22.4975 15.8794 21.781L10.996 19.105L6.11618 21.7798C4.8617 22.4758 3.40564 21.4068 3.53924 19.9875L3.556 19.8564L3.65774 19.8676L3.5572 19.8464L4.49079 14.1674L0.532613 10.1497L0.529023 10.146C-0.498712 9.09128 0.0480597 7.23332 1.5045 7.01068L6.96958 6.18317L9.41366 1.02216L9.41606 1.01716ZM3.61585 19.9638C3.62093 19.966 3.62718 19.9661 3.6326 19.9675C3.62523 19.9655 3.61743 19.9645 3.61106 19.9613L3.61585 19.9638ZM3.5931 19.784L3.59191 19.7865C3.5939 19.7848 3.59639 19.7823 3.59909 19.7803L3.5931 19.784ZM3.67449 19.7641C3.67079 19.7627 3.66654 19.7618 3.66253 19.7616H3.65893C3.6641 19.7617 3.66957 19.7626 3.67449 19.7641Z" fill="white"/>
</svg>
