<svg width="22" height="22" viewBox="0 0 22 22" fill="none" xmlns="http://www.w3.org/2000/svg">
<path d="M19.8933 4.05251L18.3812 2.54038C17.6639 1.82316 16.4311 1.88945 15.6325 2.6882L4.60936 13.7114C4.5726 13.7482 4.5443 13.7925 4.5263 13.8413L2.41291 19.5582C2.36431 19.69 2.39661 19.8381 2.49612 19.9375C2.56488 20.0062 2.6567 20.043 2.75068 20.043C2.79252 20.043 2.83482 20.0356 2.87543 20.0207L8.59235 17.9073C8.64111 17.8893 8.68541 17.861 8.72202 17.8242L19.7455 6.80098C19.7455 6.80083 19.7456 6.80083 19.7456 6.80067C20.5441 6.00239 20.6104 4.76974 19.8933 4.05251ZM5.00681 14.6179L7.81575 17.4268L5.78988 18.1757C5.45995 17.5095 4.92237 16.972 4.2579 16.6436L5.00681 14.6179ZM4.00611 17.3248C4.47985 17.5735 4.85854 17.9522 5.10864 18.4275L3.35948 19.074L4.00611 17.3248ZM8.46761 17.0606L5.37304 13.966L14.0209 5.31823L17.1153 8.41293L8.46761 17.0606ZM19.2365 6.29155L17.6244 7.90381L14.5298 4.80927L16.142 3.19716C16.6597 2.67943 17.4355 2.61329 17.872 3.0495L19.3842 4.56148C19.8206 4.99799 19.7543 5.77413 19.2365 6.29155Z" fill="#E6E6E6" stroke="#E6E6E6" stroke-width="0.4"/>
</svg>
