<svg width="24" height="24" viewBox="0 0 24 24" fill="none" xmlns="http://www.w3.org/2000/svg">
<path d="M11.9981 8.12598C11.2321 8.12598 10.4832 8.35313 9.84631 8.77871C9.20939 9.20429 8.71297 9.80918 8.41982 10.5169C8.12668 11.2246 8.04998 12.0033 8.19942 12.7546C8.34887 13.506 8.71774 14.1961 9.2594 14.7377C9.80106 15.2794 10.4912 15.6483 11.2425 15.7977C11.9938 15.9471 12.7725 15.8704 13.4802 15.5773C14.1879 15.2842 14.7928 14.7877 15.2184 14.1508C15.644 13.5139 15.8711 12.7651 15.8711 11.999C15.8696 10.9723 15.4611 9.98807 14.7351 9.26206C14.0091 8.53605 13.0248 8.12751 11.9981 8.12598ZM11.9981 15.0044C11.4037 15.0044 10.8226 14.8281 10.3284 14.4979C9.83419 14.1677 9.44899 13.6983 9.22152 13.1491C8.99406 12.6 8.93454 11.9957 9.0505 11.4127C9.16646 10.8298 9.45269 10.2943 9.87299 9.87397C10.2933 9.45367 10.8288 9.16744 11.4118 9.05148C11.9947 8.93552 12.599 8.99503 13.1482 9.2225C13.6973 9.44996 14.1667 9.83516 14.4969 10.3294C14.8271 10.8236 15.0034 11.4047 15.0034 11.999C15.0026 12.7959 14.6858 13.5598 14.1223 14.1233C13.5589 14.6867 12.7949 15.0036 11.9981 15.0044Z" fill="white" stroke="white" stroke-width="0.2"/>
<path d="M19.9885 9.54979H19.3656C19.2478 9.54603 19.1339 9.50714 19.0384 9.43813C18.943 9.36911 18.8703 9.27313 18.8298 9.1625C18.7815 9.05626 18.7662 8.93799 18.7858 8.82295C18.8053 8.7079 18.8589 8.60135 18.9396 8.51702L19.3817 8.07487C19.6683 7.78803 19.8292 7.39915 19.8292 6.99369C19.8292 6.58824 19.6683 6.19936 19.3817 5.91252L18.0908 4.62156C17.8039 4.335 17.415 4.17404 17.0096 4.17404C16.6041 4.17404 16.2152 4.335 15.9284 4.62156L15.4862 5.06371C15.3992 5.13982 15.2927 5.19007 15.1786 5.20879C15.0645 5.2275 14.9475 5.21393 14.8407 5.16962C14.7339 5.1253 14.6417 5.052 14.5744 4.958C14.5071 4.864 14.4675 4.75305 14.4599 4.6377V4.00836C14.4599 3.80637 14.4199 3.60638 14.3423 3.41993C14.2646 3.23349 14.1507 3.06427 14.0073 2.92204C13.8639 2.77982 13.6937 2.66741 13.5066 2.59129C13.3195 2.51518 13.1192 2.47687 12.9172 2.47857H11.0776C10.6719 2.47857 10.2828 2.63974 9.9959 2.92663C9.70901 3.21352 9.54784 3.60263 9.54784 4.00836V4.63124C9.54407 4.74898 9.50519 4.86291 9.43617 4.95838C9.36716 5.05385 9.27117 5.1265 9.16055 5.16699C9.05431 5.21527 8.93604 5.23061 8.82099 5.21106C8.70595 5.1915 8.59939 5.13793 8.51507 5.05726L8.07937 4.61511C7.79253 4.32855 7.40365 4.16759 6.9982 4.16759C6.59274 4.16759 6.20387 4.32855 5.91702 4.61511L4.62606 5.90606C4.3395 6.19291 4.17854 6.58178 4.17854 6.98724C4.17854 7.3927 4.3395 7.78157 4.62606 8.06842L5.06821 8.51057C5.14432 8.59758 5.19458 8.70415 5.21329 8.81822C5.232 8.9323 5.21844 9.04934 5.17412 9.1561C5.1298 9.26287 5.0565 9.35511 4.9625 9.4224C4.8685 9.48969 4.75755 9.52935 4.6422 9.53688H4.0064C3.80442 9.53687 3.60443 9.57687 3.41798 9.65455C3.23153 9.73224 3.06231 9.84608 2.92009 9.9895C2.77787 10.1329 2.66545 10.3031 2.58934 10.4902C2.51322 10.6773 2.47491 10.8776 2.47662 11.0796V12.9192C2.47662 13.3249 2.63779 13.714 2.92468 14.0009C3.21157 14.2878 3.60068 14.449 4.0064 14.449H4.62929C4.74473 14.4517 4.85674 14.4888 4.95102 14.5555C5.04529 14.6221 5.11756 14.7154 5.15858 14.8234C5.20686 14.9296 5.22221 15.0479 5.20265 15.1629C5.18309 15.278 5.12952 15.3845 5.04885 15.4688L4.61315 15.9174C4.32659 16.2043 4.16563 16.5932 4.16563 16.9986C4.16563 17.4041 4.32659 17.7929 4.61315 18.0798L5.90411 19.3708C6.19096 19.6573 6.57983 19.8183 6.98529 19.8183C7.39074 19.8183 7.77962 19.6573 8.06646 19.3708L8.50862 18.9286C8.59563 18.8525 8.70219 18.8022 8.81627 18.7835C8.93035 18.7648 9.04738 18.7784 9.15415 18.8227C9.26092 18.867 9.35316 18.9403 9.42045 19.0343C9.48774 19.1283 9.52739 19.2393 9.53493 19.3546V19.9775C9.53493 20.3832 9.6961 20.7723 9.98299 21.0592C10.2699 21.3461 10.659 21.5073 11.0647 21.5073H12.9043C13.1052 21.5073 13.3041 21.4677 13.4898 21.3908C13.6754 21.314 13.844 21.2013 13.986 21.0592C14.1281 20.9172 14.2408 20.7485 14.3177 20.5629C14.3945 20.3773 14.4341 20.1784 14.4341 19.9775V19.3675C14.4379 19.2498 14.4768 19.1359 14.5458 19.0404C14.6148 18.9449 14.7108 18.8723 14.8214 18.8318C14.9276 18.7835 15.0459 18.7682 15.161 18.7877C15.276 18.8073 15.3826 18.8608 15.4669 18.9415L15.909 19.3837C16.1959 19.6702 16.5848 19.8312 16.9902 19.8312C17.3957 19.8312 17.7845 19.6702 18.0714 19.3837L19.3623 18.0927C19.6489 17.8059 19.8099 17.417 19.8099 17.0115C19.8099 16.6061 19.6489 16.2172 19.3623 15.9304L18.9202 15.4882C18.8441 15.4012 18.7938 15.2946 18.7751 15.1805C18.7564 15.0665 18.77 14.9494 18.8143 14.8427C18.8586 14.7359 18.9319 14.6437 19.0259 14.5764C19.1199 14.5091 19.2309 14.4694 19.3462 14.4619H19.9691C20.3748 14.4619 20.7639 14.3007 21.0508 14.0138C21.3377 13.7269 21.4989 13.3378 21.4989 12.9321V11.0925C21.5023 10.6879 21.3453 10.2984 21.0622 10.0092C20.7792 9.7201 20.3931 9.5549 19.9885 9.54979ZM20.55 12.9192C20.55 12.9929 20.5355 13.066 20.5073 13.1341C20.4791 13.2022 20.4377 13.2641 20.3855 13.3163C20.3334 13.3684 20.2715 13.4098 20.2034 13.438C20.1352 13.4662 20.0622 13.4808 19.9885 13.4808H19.3656C19.0584 13.4877 18.7598 13.5838 18.5063 13.7573C18.2527 13.9309 18.0551 14.1744 17.9374 14.4583C17.8198 14.7421 17.7872 15.0541 17.8436 15.3561C17.9001 15.6582 18.0431 15.9373 18.2553 16.1595L18.6975 16.6016C18.8027 16.707 18.8619 16.8497 18.8619 16.9986C18.8619 17.1475 18.8027 17.2903 18.6975 17.3956L17.4065 18.6865C17.3012 18.7918 17.1585 18.8509 17.0096 18.8509C16.8607 18.8509 16.7179 18.7918 16.6126 18.6865L16.1705 18.2444C15.9544 18.0321 15.6806 17.8883 15.3832 17.8309C15.0859 17.7735 14.7782 17.805 14.4987 17.9217L14.4632 17.9378C14.1789 18.0523 13.935 18.2488 13.7626 18.5022C13.5902 18.7556 13.4971 19.0546 13.4949 19.3611V19.984C13.4949 20.1329 13.4358 20.2757 13.3305 20.381C13.2251 20.4864 13.0823 20.5455 12.9334 20.5455H11.0938C10.9448 20.5455 10.802 20.4864 10.6967 20.381C10.5914 20.2757 10.5322 20.1329 10.5322 19.984V19.3675C10.5296 19.0582 10.4345 18.7567 10.2591 18.5018C10.0836 18.247 9.83592 18.0506 9.54784 17.9378C9.34802 17.852 9.13273 17.808 8.91527 17.8087C8.71532 17.8077 8.51714 17.8463 8.33215 17.9221C8.14715 17.998 7.97899 18.1097 7.83732 18.2508L7.39517 18.693C7.28986 18.7982 7.14708 18.8574 6.9982 18.8574C6.84932 18.8574 6.70653 18.7982 6.60123 18.693L5.31027 17.402C5.20503 17.2967 5.14591 17.154 5.14591 17.0051C5.14591 16.8562 5.20503 16.7134 5.31027 16.6081L5.75242 16.1659C5.96979 15.947 6.11668 15.6681 6.1742 15.3649C6.23171 15.0618 6.19722 14.7485 6.07516 14.4651C5.96063 14.1808 5.76417 13.937 5.51075 13.7646C5.25733 13.5922 4.95838 13.499 4.65188 13.4969H4.0064C3.93128 13.4969 3.85691 13.4819 3.78771 13.4527C3.7185 13.4234 3.65586 13.3806 3.6035 13.3268C3.55114 13.2729 3.51011 13.2091 3.48286 13.1391C3.45561 13.069 3.44268 12.9943 3.44484 12.9192V11.0796C3.44484 10.9306 3.504 10.7878 3.60931 10.6825C3.71463 10.5772 3.85747 10.518 4.0064 10.518H4.62929C4.93649 10.5111 5.23504 10.415 5.48861 10.2414C5.74217 10.0679 5.93981 9.82435 6.05746 9.54049C6.17511 9.25663 6.20769 8.94469 6.15124 8.64264C6.09479 8.3406 5.95174 8.06148 5.73951 7.83927L5.29736 7.39712C5.19212 7.29181 5.133 7.14903 5.133 7.00015C5.133 6.85127 5.19212 6.70848 5.29736 6.60318L6.58832 5.31222C6.69362 5.20698 6.83641 5.14786 6.98529 5.14786C7.13417 5.14786 7.27695 5.20698 7.38226 5.31222L7.82441 5.75438C8.04043 5.96665 8.31426 6.1105 8.61163 6.1679C8.90899 6.22531 9.21669 6.19373 9.4962 6.07711L9.5317 6.06098C9.8165 5.94717 10.0608 5.7509 10.2333 5.49731C10.4058 5.24373 10.4987 4.94439 10.4999 4.6377V4.00836C10.4999 3.93323 10.5149 3.85887 10.5442 3.78966C10.5734 3.72045 10.6162 3.65781 10.6701 3.60545C10.7239 3.55309 10.7878 3.51207 10.8578 3.48481C10.9278 3.45756 11.0025 3.44463 11.0776 3.44679H12.9172C12.991 3.44679 13.064 3.46131 13.1321 3.48954C13.2003 3.51776 13.2622 3.55912 13.3143 3.61127C13.3665 3.66341 13.4078 3.72532 13.4361 3.79345C13.4643 3.86159 13.4788 3.93461 13.4788 4.00836V4.63124C13.4857 4.93844 13.5818 5.23699 13.7554 5.49056C13.9289 5.74413 14.1725 5.94176 14.4563 6.05941C14.7402 6.17706 15.0521 6.20964 15.3542 6.15319C15.6562 6.09674 15.9353 5.95369 16.1575 5.74147L16.5997 5.29931C16.705 5.19407 16.8478 5.13495 16.9967 5.13495C17.1455 5.13495 17.2883 5.19407 17.3936 5.29931L18.6846 6.59027C18.7898 6.69558 18.849 6.83836 18.849 6.98724C18.849 7.13612 18.7898 7.27891 18.6846 7.38421L18.2424 7.82636C18.0302 8.04238 17.8863 8.31621 17.8289 8.61358C17.7715 8.91095 17.8031 9.21864 17.9197 9.49815L17.9358 9.53365C18.0504 9.81795 18.2468 10.0618 18.5002 10.2342C18.7537 10.4066 19.0526 10.4998 19.3591 10.5019H19.982C20.1309 10.5019 20.2738 10.561 20.3791 10.6664C20.4844 10.7717 20.5436 10.9145 20.5436 11.0634L20.55 12.9192Z" fill="white" stroke="white" stroke-width="0.2"/>
</svg>
