<svg width="40" height="40" viewBox="0 0 40 40" fill="none" xmlns="http://www.w3.org/2000/svg">
<path d="M17.7586 29.8237L12.5316 23.7872H8V16.2319H12.5301L17.7586 10.1953V29.8237Z" fill="white" stroke="white" stroke-width="0.806452" stroke-linejoin="round"/>
<path d="M21.2725 15.0236C21.2725 14.8929 21.3959 14.7973 21.5208 14.8359C23.7282 15.5188 25.3314 17.576 25.3314 20.0078C25.3313 22.4395 23.7282 24.4969 21.5208 25.1797C21.3959 25.2183 21.2725 25.1227 21.2725 24.992V15.0236Z" fill="white"/>
<path d="M21.2725 8.23637C21.2725 8.11269 21.3841 8.01863 21.5056 8.04148C27.1499 9.10242 31.4212 14.0552 31.4214 20.0076C31.4211 25.9599 27.1498 30.9113 21.5056 31.9722C21.3841 31.995 21.2725 31.901 21.2725 31.7773V29.4179C21.2725 29.3239 21.3383 29.2427 21.4298 29.2211C25.6059 28.2337 28.7146 24.4856 28.7149 20.0076C28.7147 15.5294 25.6062 11.7785 21.4298 10.791C21.3383 10.7694 21.2725 10.6882 21.2725 10.5942V8.23637Z" fill="white"/>
</svg>
