<svg width="9" height="9" viewBox="0 0 9 9" fill="none" xmlns="http://www.w3.org/2000/svg">
<path fill-rule="evenodd" clip-rule="evenodd" d="M3.85202 0.399035C4.10858 -0.113407 4.8334 -0.136271 5.11726 0.353498C5.12826 0.368216 5.1383 0.384134 5.14664 0.400994L6.14552 2.42567L8.38221 2.7503C8.97226 2.83665 9.21125 3.56413 8.77931 3.98225L8.77784 3.98274L8.77588 3.9847L7.15957 5.55841L7.54247 7.78727C7.64297 8.37647 7.02414 8.82581 6.4961 8.54475L6.49561 8.54426L4.49835 7.49495L2.50208 8.54426L2.50159 8.54475C1.98839 8.8178 1.39321 8.39795 1.44787 7.84113L1.45473 7.78972L1.49635 7.79413L1.45522 7.7858V7.78482L1.83714 5.55792L0.217887 3.98176L0.216418 3.98029C-0.204018 3.56653 0.0196608 2.83765 0.615478 2.7503L2.85119 2.42567L3.85104 0.400994L3.85153 0.399525L3.85202 0.399035ZM1.47921 7.83183C1.48129 7.83273 1.48385 7.83275 1.48606 7.8333C1.48305 7.83253 1.47986 7.83213 1.47725 7.83085L1.47921 7.83183ZM1.46991 7.76132L1.46942 7.7623C1.47023 7.76161 1.47125 7.76064 1.47235 7.75985L1.46991 7.76132ZM1.5032 7.75349C1.50169 7.75297 1.49995 7.7526 1.49831 7.75251H1.49684C1.49895 7.75257 1.50119 7.7529 1.5032 7.75349Z" fill="#E4A227"/>
</svg>
